PathFileType	4	(X/Y/Z)	17_1_22_p0_0-454_filt_butterworth.trc
DataRate	CameraRate	NumFrames	NumMarkers	Units	OrigDataRate	OrigDataStartFrame	OrigNumFrames
60.0	60.0	5	27	m	60.0	56	454
Frame#	Time	RHip			RKnee			RAnkle			RBigToe			RSmallToe			RHeel			LHip			LKnee			LAnkle			LBigToe			LSmallToe			LHeel			Neck			Head			Nose			RShoulder			RElbow			RWrist			RThumb			RIndex			RPinky			LShoulder			LElbow			LWrist			LThumb			LIndex			LPinky			
		X1	Y1	Z1	X2	Y2	Z2	X3	Y3	Z3	X4	Y4	Z4	X5	Y5	Z5	X6	Y6	Z6	X7	Y7	Z7	X8	Y8	Z8	X9	Y9	Z9	X10	Y10	Z10	X11	Y11	Z11	X12	Y12	Z12	X13	Y13	Z13	X14	Y14	Z14	X15	Y15	Z15	X16	Y16	Z16	X17	Y17	Z17	X18	Y18	Z18	X19	Y19	Z19	X20	Y20	Z20	X21	Y21	Z21	X22	Y22	Z22	X23	Y23	Z23	X24	Y24	Z24	X25	Y25	Z25	X26	Y26	Z26	X27	Y27	Z27	
56	0.9333333333333332	0.253283281422368	0.801127742989061	0.5847860356866045	0.24079075701024524	0.39138565532339714	0.6116900054580524	0.2118334131229335	-0.03590672229059455	0.7298767614343868	0.2601204252689064	-0.03349304494993722	0.5309120208621825	0.31224206870698396	-0.050183718605426586	0.5839633541911503	0.19599507820128828	-0.07809660502045584	0.760969540435833	0.05301804319511513	0.802280323343514	0.5781012793644328	0.0388570062043718	0.3660462956569178	0.6377776801768597	0.04845923907384866	-0.028902578158299552	0.6662869313441777	0.0728494718834573	-0.006450158413049613	0.47415351412116524	0.00765651348815336	-0.03189531061707651	0.5293033571393722	0.06255065550518542	-0.08320157421474883	0.7260548738423753	0.16256042175488222	1.4123461218757842	0.581428499169918	0.1606587014622672	1.6535268501076712	0.5734848806779211	0.1628252339708291	1.5386513845571603	0.4886142938514453	0.292554107434828	1.3000640836313835	0.5976208287794964	0.3223237684060244	1.0461696711021093	0.5496561566943099	0.2434357014637494	0.8728718023105471	0.3883661073759088	0.15839786728248073	0.7740009743190464	0.4200307219043925	0.16047329555926984	0.7602025287950875	0.4271920311583822	0.16526980409811332	0.7594102098479398	0.43944687320714293	0.00482945568800894	1.3055607452691806	0.5581995559151867	-0.012301402331318052	1.0517094399531572	0.5312222285149744	0.11340148274127124	0.8828265921427398	0.38706793911085274	0.1647775367220957	0.8139921991762367	0.3979053449323347	0.1767559900293813	0.7698678285157114	0.40444296316644024	0.16355538183229612	0.7684677078931543	0.4287071012677236	
57	0.95	0.2538150006686026	0.801086225012601	0.58599979500531	0.2409944475388938	0.390852915074229	0.6127580284950962	0.2119520148031429	-0.036517571237368915	0.7309021242474202	0.2601189572467387	-0.033508092679517675	0.5309284434757117	0.312233846038069	-0.05019654399180881	0.5839466418586039	0.19648313147046198	-0.07823553281012577	0.7608115889866	0.052883847887678706	0.8019219949482186	0.5794662540810808	0.03881259446028282	0.36579886977741194	0.6377969981572211	0.048454840946024424	-0.028680998127073747	0.6662303097586711	0.07291987422030385	-0.007386036641876294	0.47444627182156035	0.007678267832616249	-0.032178871848676356	0.5296509379757884	0.0625384394582517	-0.08316936981439649	0.7260045777747682	0.16255217152961182	1.4123552025052846	0.5814173280352954	0.1606742979902121	1.6535170104599504	0.5734851952751615	0.16279113432132147	1.5392339932404637	0.4887031472004563	0.29256675345884825	1.3002831882397838	0.597592548837589	0.32216072723961664	1.0462598096187183	0.5503015266634763	0.24384478378679336	0.8726980565673566	0.39053789938878697	0.15863876885187028	0.7738113270811111	0.4201728431443189	0.16062322070398735	0.7596197109323165	0.4273993304166739	0.16606419677067696	0.7600747849157256	0.4401643594422709	0.004839160862849847	1.305529316854618	0.5581921104396366	-0.012295718033784738	1.051692199528495	0.531271207212601	0.11342311976857787	0.8827693126855545	0.3871040224584061	0.16561469323033257	0.8146886032946351	0.3976729112215656	0.17672129027337008	0.7697942075038304	0.4047725413258044	0.1638076635623938	0.7679644819678525	0.43050274532106014	
58	0.9666666666666668	0.2543361554596422	0.8010366984598141	0.587415223139753	0.24125152908109507	0.39009208336224754	0.61409207047532	0.21207777301423253	-0.036840554661029035	0.7314514924811034	0.26011593663518484	-0.03352445467265446	0.5309273640141449	0.31222582154003875	-0.050197921111747784	0.5838859683929876	0.19705004637667461	-0.07859166597089771	0.760661228638615	0.05296697956403542	0.8015655501148142	0.5807103381382179	0.038752804194345236	0.3654856430930117	0.6378148298705312	0.0484728934005215	-0.028652912970341955	0.6662457550647587	0.07305987310265176	-0.008671880431130603	0.4748344929295672	0.007657073451968753	-0.03204057654411948	0.5293616427124382	0.06250868716508004	-0.08317543006044739	0.7259791386028608	0.16254836577319828	1.412364496292445	0.5813976524585744	0.16070428531512332	1.653499369160612	0.5736056576637888	0.16277734804138289	1.5397004914557566	0.48878135404754697	0.29256307960860506	1.300793898949609	0.5974848988735739	0.3223429942884998	1.0471043343196578	0.5509784208521971	0.24429304686526004	0.8725933569617956	0.39285495061648124	0.15924431429015493	0.7740400562876466	0.4194143076769594	0.16068346505629938	0.7592349212250721	0.42714659350622924	0.16704899297038373	0.760735528852307	0.4412967336378978	0.004879904718094284	1.3057164652980726	0.5582204712465098	-0.012284545177682085	1.0516592127467854	0.5313281861084393	0.11344222681728336	0.8827480381367684	0.3871429609086292	0.16660793287815617	0.8160902576410579	0.3968777234814475	0.17665142696197422	0.7697513027881303	0.4050407497325614	0.16393884775934547	0.7677734760530975	0.43160519652976853	
59	0.9833333333333332	0.2548862001610055	0.8009908396034341	0.5888233169393673	0.24162122458110444	0.3891840882765877	0.6155360131008831	0.21220811189937508	-0.03686500513451692	0.7315100394959085	0.26011154315471685	-0.033548445455094486	0.5309111857448915	0.31221840370303966	-0.05019241477124103	0.5837984917736242	0.1976141320381514	-0.07911979629953447	0.7606864068055748	0.053219654226097514	0.8012489660914274	0.5817959582499561	0.03867587107631535	0.3650934355497082	0.637824840977315	0.0485161401518515	-0.02886361457407982	0.6663449941328922	0.07322543477752916	-0.010007469838009174	0.4751773864087074	0.007550225056036084	-0.031185244596898688	0.5279229270504986	0.06246542488586887	-0.08322286122414188	0.7259884830622968	0.16254976003051091	1.412373299904922	0.5813669906176958	0.1607486056452626	1.6534691963146615	0.5738523005256575	0.16278145186417686	1.540007544696128	0.4888394733920676	0.2925473257446928	1.3013817821095843	0.5973340215734164	0.3228402327254588	1.0485119721207372	0.5516049088558946	0.24472469242037753	0.8725807139633439	0.3949915376355109	0.16019575035825578	0.7746964669008257	0.41808839050149726	0.16070766355348728	0.7590528032672151	0.426830683732651	0.16810503202775973	0.7613797205544268	0.4424202088449598	0.004948109588210079	1.3060979824694365	0.5582632901851502	-0.012268197570265775	1.0516189694220175	0.5313861111465916	0.1134599898697154	0.8827482689564726	0.3871717848196897	0.1676908575547	0.818298060366139	0.3953719404446409	0.1765841370931627	0.7697943134581506	0.4050938596111306	0.16394672943764355	0.7679142373018745	0.4319891382487088	
60	1.0	0.25550586953206106	0.8009818771302258	0.5899379184759213	0.24209280673220726	0.38821558690735364	0.6168827502891006	0.2123471475598266	-0.036615241397303246	0.7311193462782561	0.2601065707148398	-0.03358305040056444	0.5308827852278829	0.31221096003244975	-0.05018453368545367	0.5837036072729511	0.1980787831858451	-0.07965313409847363	0.7609300519596321	0.05350590162470034	0.8009789650543513	0.5827160103999178	0.03857969409090197	0.36461777897619896	0.637819056619252	0.0485765836386471	-0.02931579847353742	0.6665188711608737	0.0733828663171037	-0.011188054532908838	0.4753896869028651	0.007351529683352452	-0.029628060423945717	0.5253273511556392	0.06241942962657148	-0.08330161132974918	0.7260284885267729	0.162556721204322	1.412380088401879	0.581326924500628	0.16078004893474143	1.6534290019519393	0.5740276492223806	0.1627907806512751	1.5401511585091014	0.48887950429472776	0.2925250151015888	1.3019404453426375	0.5971674109078817	0.32355192187820486	1.0501467343240554	0.552157924393254	0.2450893939370722	0.8726898735362775	0.39665288198946014	0.16134961248917465	0.775571855767223	0.4163211949338472	0.16074266246991592	0.7590269076545118	0.4266659378338285	0.16901799782889582	0.7620716002549275	0.44297876589996876	0.005032993910945447	1.306619110042168	0.5582961202818386	-0.012248200518196459	1.0515807145815712	0.5314374617210174	0.1134763238735833	0.8827591591226818	0.38718495919200696	0.1687445767026033	0.8210573053423427	0.39328114417316123	0.17660383502236807	0.7698882175317324	0.40500394049578814	0.1638814351223542	0.7683374877569925	0.4319334736107212	
